<svg width="20" height="20" viewBox="0 0 20 20" fill="none" xmlns="http://www.w3.org/2000/svg">
<path fill-rule="evenodd" clip-rule="evenodd" d="M7.64336 4.46428C7.64336 3.47805 8.44286 2.67856 9.42907 2.67856H10.5719C11.5582 2.67856 12.3576 3.47805 12.3576 4.46428V4.68079C11.5788 4.66429 10.798 4.66429 10.0406 4.66429H9.96013C9.20282 4.66429 8.42216 4.66429 7.64336 4.68079V4.46428ZM5.5005 4.78251V4.46428C5.5005 2.29459 7.25939 0.535706 9.42907 0.535706H10.5719C12.7416 0.535706 14.5004 2.29459 14.5004 4.46428V4.78253C15.116 4.83262 15.7146 4.90393 16.2827 5.00546C17.4546 5.21489 18.3767 6.11023 18.6276 7.27061C18.7543 7.85608 18.83 8.42548 18.8754 9.02148L10.6274 11.7749C10.2237 11.9097 9.78716 11.9097 9.38345 11.7749L1.12551 9.01818C1.17094 8.42338 1.24671 7.85499 1.37308 7.27061C1.62399 6.11023 2.54616 5.21489 3.71802 5.00546C4.28617 4.90392 4.88492 4.83261 5.5005 4.78251ZM1.0575 12.0108C1.05749 11.6112 1.05749 11.2359 1.06032 10.879L8.818 13.4687C9.58872 13.726 10.4221 13.726 11.1929 13.4687L18.9404 10.8824C18.9432 11.2383 18.9432 11.6125 18.9432 12.0108V12.1176C18.9433 14.0386 18.9433 15.3983 18.6276 16.858C18.3767 18.0184 17.4546 18.9137 16.2827 19.1231C14.3736 19.4643 12.1192 19.4643 10.0406 19.4643H9.96013C7.88153 19.4643 5.6271 19.4643 3.71802 19.1231C2.54616 18.9137 1.62399 18.0184 1.37308 16.858C1.05745 15.3984 1.05747 14.0386 1.0575 12.1176V12.0108Z" fill="#010A18"/>
</svg>
