<svg width="20" height="20" viewBox="0 0 20 20" fill="none" xmlns="http://www.w3.org/2000/svg">
<g clip-path="url(#clip0_6_281)">
<path d="M19.5417 6.922C19.711 4.57162 13.134 0.174881 13.134 2.15897V4.46566C11.9761 4.4523 10.8296 4.4689 9.64353 4.51544C8.96696 4.542 8.40137 5.04937 8.34753 5.72433C8.2852 6.50549 8.2852 7.26716 8.34753 8.04832C8.40137 8.72327 8.96696 9.23064 9.64353 9.2572C10.3354 9.28434 11.0138 9.30132 11.6889 9.30807C12.4842 9.31606 13.134 9.9567 13.134 10.7521V11.6137C13.134 13.5577 19.7337 9.19229 19.5417 6.922Z" fill="#ACACAC"/>
<path d="M0.459019 13.164C0.289692 10.8136 6.86673 6.41689 6.86673 8.40097V9.26253C6.86673 10.0579 7.51646 10.6986 8.31185 10.7066C8.98689 10.7133 9.66529 10.7303 10.3572 10.7575C11.0337 10.784 11.5993 11.2914 11.6532 11.9663C11.7155 12.7475 11.7155 13.5092 11.6532 14.2903C11.5993 14.9653 11.0337 15.4727 10.3572 15.4991C9.17108 15.5457 8.02459 15.5623 6.86673 15.549V17.8557C6.86673 19.7997 0.26704 15.4343 0.459019 13.164Z" fill="#ACACAC"/>
</g>
<defs>
<clipPath id="clip0_6_281">
<rect width="20" height="20" fill="white"/>
</clipPath>
</defs>
</svg>
