<svg width="20" height="20" viewBox="0 0 20 20" fill="none" xmlns="http://www.w3.org/2000/svg">
<g clip-path="url(#clip0_6_290)">
<path fill-rule="evenodd" clip-rule="evenodd" d="M14.079 1.02495C12.7539 0.749236 9.80039 0.652893 8.0895 0.652893C6.65177 0.652893 5.2607 0.88746 3.85877 1.17995C2.19137 1.52711 1.0702 3.26053 0.83023 5.12922C0.626313 6.71613 0.500824 8.29519 0.500824 9.89672C0.500824 10.259 0.504895 10.5939 0.512485 10.9067C0.504868 11.1443 0.500824 11.3969 0.500824 11.6675C0.500824 13.495 0.686054 14.4774 0.886825 15.5393L0.901893 15.619C1.22547 17.3321 2.67889 18.669 4.46542 18.9218L4.69879 18.955C6.1056 19.1548 7.45889 19.347 9.4715 19.347C11.4842 19.347 12.8375 19.1548 14.2443 18.955L14.4778 18.9218C15.9443 18.7143 17.2091 17.7534 17.7868 16.4248C17.9703 16.0033 17.6117 15.5827 17.152 15.5804C16.9761 15.5797 16.8004 15.5776 16.6246 15.5754C16.3991 15.5727 16.1737 15.57 15.9488 15.57C13.8436 15.57 12.1369 13.8633 12.1369 11.758C12.1369 9.65275 13.8436 7.94608 15.9488 7.94608C16.172 7.94608 16.3953 7.94415 16.6188 7.94223C16.7736 7.94089 16.9284 7.93956 17.0831 7.93888C17.5511 7.93678 17.9044 7.49743 17.6948 7.07899C17.3428 6.37629 16.7863 5.78526 16.1031 5.37531C15.0053 4.79605 13.5869 4.67459 11.5831 4.67459C9.97293 4.67459 8.4223 4.79856 7.22476 4.89432C6.90059 4.92023 6.60229 4.94408 6.33569 4.96285C5.84379 4.99746 5.41697 4.62676 5.38236 4.13486C5.34773 3.64298 5.71843 3.21615 6.21033 3.18153C6.45367 3.16441 6.73452 3.14191 7.04572 3.11698C8.24409 3.02096 9.89261 2.88888 11.5831 2.88888C12.7607 2.88888 13.8887 2.92242 14.9348 3.12196C15.4396 3.21822 15.924 2.81283 15.6983 2.35138C15.3796 1.69988 14.8186 1.17882 14.079 1.02495ZM15.9488 13.7843H17.9154C18.7044 13.7843 19.344 13.1447 19.344 12.3557V11.1603C19.344 10.3714 18.7044 9.73179 17.9154 9.73179H15.9488C14.8298 9.73179 13.9226 10.639 13.9226 11.758C13.9226 12.8771 14.8298 13.7843 15.9488 13.7843Z" fill="#ACACAC"/>
</g>
<defs>
<clipPath id="clip0_6_290">
<rect width="20" height="20" fill="white"/>
</clipPath>
</defs>
</svg>
