<svg width="20" height="20" viewBox="0 0 20 20" fill="none" xmlns="http://www.w3.org/2000/svg">
<g clip-path="url(#clip0_6_365)">
<path fill-rule="evenodd" clip-rule="evenodd" d="M14.0791 1.02495C12.7539 0.749236 9.80042 0.652893 8.08953 0.652893C6.6518 0.652893 5.26073 0.88746 3.8588 1.17995C2.1914 1.52711 1.07023 3.26053 0.83026 5.12922C0.626343 6.71613 0.500854 8.29519 0.500854 9.89672C0.500854 10.259 0.504926 10.5939 0.512516 10.9067C0.504899 11.1443 0.500854 11.3969 0.500854 11.6675C0.500854 13.495 0.686085 14.4774 0.886856 15.5393L0.901923 15.619C1.2255 17.3321 2.67892 18.669 4.46545 18.9218L4.69882 18.955C6.10563 19.1548 7.45892 19.347 9.47153 19.347C11.4842 19.347 12.8375 19.1548 14.2444 18.955L14.4779 18.9218C15.9443 18.7143 17.2092 17.7534 17.7869 16.4248C17.9703 16.0033 17.6117 15.5827 17.152 15.5804C16.9762 15.5797 16.8004 15.5776 16.6246 15.5754C16.3992 15.5727 16.1737 15.57 15.9489 15.57C13.8436 15.57 12.1369 13.8633 12.1369 11.758C12.1369 9.65275 13.8436 7.94608 15.9489 7.94608C16.172 7.94608 16.3953 7.94415 16.6189 7.94223C16.7736 7.94089 16.9284 7.93956 17.0832 7.93888C17.5512 7.93678 17.9044 7.49743 17.6949 7.07899C17.3429 6.37629 16.7863 5.78526 16.1032 5.37531C15.0053 4.79605 13.587 4.67459 11.5832 4.67459C9.97296 4.67459 8.42233 4.79856 7.22479 4.89432C6.90062 4.92023 6.60232 4.94408 6.33572 4.96285C5.84382 4.99746 5.417 4.62676 5.38239 4.13486C5.34776 3.64298 5.71846 3.21615 6.21036 3.18153C6.4537 3.16441 6.73455 3.14191 7.04575 3.11698C8.24412 3.02096 9.89264 2.88888 11.5832 2.88888C12.7608 2.88888 13.8888 2.92242 14.9349 3.12196C15.4396 3.21822 15.924 2.81283 15.6983 2.35138C15.3796 1.69988 14.8186 1.17882 14.0791 1.02495ZM15.9489 13.7843H17.9154C18.7044 13.7843 19.344 13.1447 19.344 12.3557V11.1603C19.344 10.3714 18.7044 9.73179 17.9154 9.73179H15.9489C14.8299 9.73179 13.9227 10.639 13.9227 11.758C13.9227 12.8771 14.8299 13.7843 15.9489 13.7843Z" fill="#010A18"/>
</g>
<defs>
<clipPath id="clip0_6_365">
<rect width="20" height="20" fill="white"/>
</clipPath>
</defs>
</svg>
