<svg width="20" height="20" viewBox="0 0 20 20" fill="none" xmlns="http://www.w3.org/2000/svg">
<g clip-path="url(#clip0_6_298)">
<path fill-rule="evenodd" clip-rule="evenodd" d="M8.95521 17.5811C11.0625 17.5811 12.8155 17.1256 14.1753 16.2534L17.0281 19.1063C17.586 19.6641 18.4906 19.6641 19.0484 19.1063C19.6063 18.5484 19.6063 17.6438 19.0484 17.086L16.1954 14.2329C17.0673 12.8733 17.5226 11.1206 17.5226 9.0138C17.5226 3.53067 14.4383 0.446411 8.95521 0.446411C3.4721 0.446411 0.387833 3.53067 0.387833 9.0138C0.387833 14.497 3.4721 17.5811 8.95521 17.5811ZM13.7545 5.14833C13.1711 4.79828 12.4673 4.64685 11.8449 4.64685C11.2667 4.64685 10.497 4.78063 9.97566 5.30201C9.75314 5.52453 9.64556 5.83714 9.684 6.14947C9.72246 6.46178 9.90265 6.73898 10.1725 6.90088L10.6641 7.19583C10.4631 7.3743 10.2547 7.55801 10.0481 7.73824C9.64853 8.08667 9.26158 8.41663 8.94924 8.66895C8.89946 8.70917 8.85231 8.74681 8.80794 8.78177C8.72285 8.6218 8.59991 8.39938 8.4492 8.21063C8.25127 7.96273 7.90303 7.63995 7.36628 7.59638C6.77967 7.54875 6.2591 7.87527 5.94043 8.11075C5.57328 8.38207 5.21106 8.73685 4.89597 9.07461C4.57634 9.41724 4.27987 9.77005 4.04733 10.0512L3.91206 10.2151C3.85161 10.2885 3.79811 10.3535 3.74877 10.4126C3.7084 10.4609 3.67544 10.4998 3.6489 10.5302C3.63577 10.5452 3.62544 10.5568 3.61753 10.5654L3.60633 10.5774C3.60626 10.5775 3.60627 10.5775 3.60633 10.5774C3.25798 10.9264 3.25853 11.4918 3.60756 11.8401C3.95658 12.1885 4.52191 12.1879 4.87026 11.8389C4.97566 11.7332 5.14406 11.5286 5.31191 11.3245L5.42324 11.1894C5.65066 10.9145 5.91964 10.5951 6.20173 10.2927C6.48833 9.98548 6.76401 9.72254 7.0017 9.5469C7.05551 9.50713 7.10103 9.47661 7.13867 9.45323C7.17711 9.51924 7.22324 9.60575 7.28701 9.7254L7.29747 9.74505C7.38373 9.90728 7.54218 10.2053 7.77308 10.4247C7.90963 10.5544 8.10914 10.6956 8.3778 10.7579C8.65634 10.8224 8.92421 10.7825 9.15591 10.6866C9.32308 10.6175 9.49343 10.4987 9.60668 10.417C9.74407 10.3179 9.90293 10.1941 10.0714 10.058C10.4096 9.78483 10.8161 9.43784 11.2218 9.08405C11.4717 8.86607 11.7237 8.64341 11.9625 8.43085L12.3525 9.08085C12.5144 9.35068 12.7916 9.53088 13.1039 9.56933C13.4162 9.60778 13.7288 9.5002 13.9513 9.27768C14.4727 8.7563 14.6064 7.98667 14.6064 7.40847C14.6064 6.78607 14.455 6.08224 14.105 5.49884C14.0187 5.35501 13.8983 5.23463 13.7545 5.14833Z" fill="#010A18"/>
</g>
<defs>
<clipPath id="clip0_6_298">
<rect width="20" height="20" fill="white"/>
</clipPath>
</defs>
</svg>
