<svg width="20" height="20" viewBox="0 0 20 20" fill="none" xmlns="http://www.w3.org/2000/svg">
<g clip-path="url(#clip0_6_347)">
<path fill-rule="evenodd" clip-rule="evenodd" d="M8.9552 17.5811C11.0625 17.5811 12.8155 17.1256 14.1752 16.2534L17.0281 19.1063C17.586 19.6641 18.4906 19.6641 19.0484 19.1063C19.6063 18.5484 19.6063 17.6438 19.0484 17.086L16.1954 14.2329C17.0673 12.8733 17.5226 11.1206 17.5226 9.0138C17.5226 3.53067 14.4383 0.446411 8.9552 0.446411C3.47208 0.446411 0.387817 3.53067 0.387817 9.0138C0.387817 14.497 3.47208 17.5811 8.9552 17.5811ZM13.7545 5.14833C13.1711 4.79828 12.4672 4.64685 11.8449 4.64685C11.2667 4.64685 10.497 4.78063 9.97564 5.30201C9.75313 5.52453 9.64554 5.83714 9.68398 6.14947C9.72244 6.46178 9.90264 6.73898 10.1725 6.90088L10.664 7.19583C10.4631 7.3743 10.2547 7.55801 10.048 7.73824C9.64851 8.08667 9.26157 8.41663 8.94923 8.66895C8.89944 8.70917 8.8523 8.74681 8.80793 8.78177C8.72284 8.6218 8.5999 8.39938 8.44918 8.21063C8.25125 7.96273 7.90301 7.63995 7.36627 7.59638C6.77965 7.54875 6.25908 7.87527 5.94041 8.11075C5.57327 8.38207 5.21104 8.73685 4.89595 9.07461C4.57633 9.41724 4.27985 9.77005 4.04731 10.0512L3.91204 10.2151C3.8516 10.2885 3.7981 10.3535 3.74875 10.4126C3.70838 10.4609 3.67543 10.4998 3.64888 10.5302C3.63575 10.5452 3.62543 10.5568 3.61751 10.5654L3.60631 10.5774C3.60624 10.5775 3.60625 10.5775 3.60631 10.5774C3.25797 10.9264 3.25851 11.4918 3.60754 11.8401C3.95657 12.1885 4.5219 12.1879 4.87024 11.8389C4.97564 11.7332 5.14404 11.5286 5.3119 11.3245L5.42323 11.1894C5.65064 10.9145 5.91963 10.5951 6.20171 10.2927C6.48831 9.98548 6.764 9.72254 7.00168 9.5469C7.0555 9.50713 7.10101 9.47661 7.13865 9.45323C7.1771 9.51924 7.22323 9.60575 7.287 9.7254L7.29745 9.74505C7.38371 9.90728 7.54217 10.2053 7.77307 10.4247C7.90961 10.5544 8.10913 10.6956 8.37778 10.7579C8.65633 10.8224 8.9242 10.7825 9.1559 10.6866C9.32307 10.6175 9.49341 10.4987 9.60667 10.417C9.74405 10.3179 9.90291 10.1941 10.0714 10.058C10.4096 9.78483 10.8161 9.43784 11.2217 9.08405C11.4717 8.86607 11.7237 8.64341 11.9624 8.43085L12.3524 9.08085C12.5143 9.35068 12.7915 9.53088 13.1039 9.56933C13.4162 9.60778 13.7288 9.5002 13.9513 9.27768C14.4727 8.7563 14.6064 7.98667 14.6064 7.40847C14.6064 6.78607 14.455 6.08224 14.105 5.49884C14.0187 5.35501 13.8983 5.23463 13.7545 5.14833Z" fill="#acacac"/>
</g>
<defs>
<clipPath id="clip0_6_347">
<rect width="20" height="20" fill="white"/>
</clipPath>
</defs>
</svg>
