<svg width="42" height="42" viewBox="0 0 42 42" fill="none" xmlns="http://www.w3.org/2000/svg">
<g clip-path="url(#clip0_1_271)">
<path d="M23 13H29V19H23V13Z" stroke="#222222" stroke-width="2" stroke-linecap="round" stroke-linejoin="round"/>
<path d="M13 23H19V29H13V23Z" stroke="#222222" stroke-width="2" stroke-linecap="round" stroke-linejoin="round"/>
<path d="M23 26C23 26.7956 23.3161 27.5587 23.8787 28.1213C24.4413 28.6839 25.2044 29 26 29C26.7956 29 27.5587 28.6839 28.1213 28.1213C28.6839 27.5587 29 26.7956 29 26C29 25.2044 28.6839 24.4413 28.1213 23.8787C27.5587 23.3161 26.7956 23 26 23C25.2044 23 24.4413 23.3161 23.8787 23.8787C23.3161 24.4413 23 25.2044 23 26Z" stroke="#222222" stroke-width="2" stroke-linecap="round" stroke-linejoin="round"/>
<path d="M13 16C13 16.394 13.0776 16.7841 13.2284 17.1481C13.3791 17.512 13.6001 17.8427 13.8787 18.1213C14.1573 18.3999 14.488 18.6209 14.8519 18.7716C15.2159 18.9224 15.606 19 16 19C16.394 19 16.7841 18.9224 17.1481 18.7716C17.512 18.6209 17.8427 18.3999 18.1213 18.1213C18.3999 17.8427 18.6209 17.512 18.7716 17.1481C18.9224 16.7841 19 16.394 19 16C19 15.606 18.9224 15.2159 18.7716 14.8519C18.6209 14.488 18.3999 14.1573 18.1213 13.8787C17.8427 13.6001 17.512 13.3791 17.1481 13.2284C16.7841 13.0776 16.394 13 16 13C15.606 13 15.2159 13.0776 14.8519 13.2284C14.488 13.3791 14.1573 13.6001 13.8787 13.8787C13.6001 14.1573 13.3791 14.488 13.2284 14.8519C13.0776 15.2159 13 15.606 13 16Z" stroke="#222222" stroke-width="2" stroke-linecap="round" stroke-linejoin="round"/>
</g>
<defs>
<clipPath id="clip0_1_271">
<rect width="24" height="24" fill="white" transform="translate(9 9)"/>
</clipPath>
</defs>
</svg>
