<svg width="15" height="18" viewBox="0 0 15 18" fill="none" xmlns="http://www.w3.org/2000/svg">
<path d="M3 16H13V2H3V3C3 3.55228 2.55228 4 2 4C1.44772 4 1 3.55228 1 3V1.8C1 0.805887 1.80589 0 2.8 0H13.2C14.1941 0 15 0.805887 15 1.8V16.2C15 17.1941 14.1941 18 13.2 18H2.8C1.80589 18 1 17.1941 1 16.2V15C1 14.4477 1.44772 14 2 14C2.55228 14 3 14.4477 3 15V16ZM3.55651 7.97842L10.0023 8C10.5546 8.00126 11.0013 8.45 11 9.00229C10.9987 9.55457 10.55 10.0013 9.99771 10L3.53492 9.97837V10L4.79246 11.2575C5.20251 11.6676 5.20251 12.3324 4.79246 12.7425C4.38241 13.1525 3.71759 13.1525 3.30754 12.7425L0.307537 9.74246C-0.102513 9.33241 -0.102513 8.66759 0.307537 8.25754L3.30754 5.25754C3.71759 4.84749 4.38241 4.84749 4.79246 5.25754C5.20251 5.66759 5.20251 6.33241 4.79246 6.74246L3.55651 7.97842Z" fill="#D12727"/>
</svg>
