<svg width="32" height="32" viewBox="0 0 32 32" fill="none" xmlns="http://www.w3.org/2000/svg">
<path fill-rule="evenodd" clip-rule="evenodd" d="M28.9715 6.11427L18.1143 16.9714L17.7143 17.3828L17.3143 16.9714L12 11.6686L2.68574 20.9714L1.88574 20.1714L11.6 10.4571L12 10.0457L12.4 10.4571L17.7143 15.76L28.1715 5.31427L28.9715 6.11427ZM2.28574 24H3.4286V25.1428H2.28574V24ZM4.57146 22.8571H3.4286V24H4.57146V25.1428H5.71431V24H6.85717V25.1428H8.00003V24H9.14288V25.1428H10.2857V24H11.4286V25.1428H12.5715V24H13.7143V25.1428H14.8572V24H16V25.1428H17.1429V24H18.2857V25.1428H19.4286V24H20.5715V25.1428H21.7143V24H22.8572V25.1428H24V24H25.1429V25.1428H26.2857V24H27.4286V25.1428H28.5715V24H27.4286V22.8571H28.5715V21.7143H27.4286V20.5714H28.5715V19.4286H27.4286V18.2857H28.5715V17.1428H27.4286V16H28.5715V14.8571H27.4286V13.7143H28.5715V12.5714H27.4286V11.4286H28.5715V10.2857H27.4286V11.4286H26.2857V12.5714H25.1429V13.7143H24V14.8571H22.8572V16H21.7143V17.1428H20.5715V18.2857H19.4286V19.4286H18.2857V20.5714H17.1429V19.4286H16V18.2857H14.8572V17.1428H13.7143V16H12.5715V14.8571H11.4286V16H10.2857V17.1428H9.14288V18.2857H8.00003V19.4286H6.85717V20.5714H5.71431V21.7143H4.57146V22.8571ZM5.71431 22.8571V24H4.57146V22.8571H5.71431ZM6.85717 22.8571H5.71431V21.7143H6.85717V22.8571ZM8.00003 22.8571V24H6.85717V22.8571H8.00003ZM8.00003 21.7143H6.85717V20.5714H8.00003V21.7143ZM9.14288 21.7143H8.00003V22.8571H9.14288V24H10.2857V22.8571H11.4286V24H12.5715V22.8571H13.7143V24H14.8572V22.8571H16V24H17.1429V22.8571H18.2857V24H19.4286V22.8571H20.5715V24H21.7143V22.8571H22.8572V24H24V22.8571H25.1429V24H26.2857V22.8571H27.4286V21.7143H26.2857V20.5714H27.4286V19.4286H26.2857V18.2857H27.4286V17.1428H26.2857V16H27.4286V14.8571H26.2857V13.7143H27.4286V12.5714H26.2857V13.7143H25.1429V14.8571H24V16H22.8572V17.1428H21.7143V18.2857H20.5715V19.4286H19.4286V20.5714H18.2857V21.7143H17.1429V20.5714H16V19.4286H14.8572V18.2857H13.7143V17.1428H12.5715V16H11.4286V17.1428H10.2857V18.2857H9.14288V19.4286H8.00003V20.5714H9.14288V21.7143ZM10.2857 21.7143V22.8571H9.14288V21.7143H10.2857ZM10.2857 20.5714H9.14288V19.4286H10.2857V20.5714ZM11.4286 20.5714H10.2857V21.7143H11.4286V22.8571H12.5715V21.7143H13.7143V22.8571H14.8572V21.7143H16V22.8571H17.1429V21.7143H16V20.5714H14.8572V19.4286H13.7143V18.2857H12.5715V17.1428H11.4286V18.2857H10.2857V19.4286H11.4286V20.5714ZM12.5715 20.5714V21.7143H11.4286V20.5714H12.5715ZM12.5715 19.4286V18.2857H11.4286V19.4286H12.5715ZM12.5715 19.4286V20.5714H13.7143V21.7143H14.8572V20.5714H13.7143V19.4286H12.5715ZM19.4286 21.7143V20.5714H20.5715V21.7143H19.4286ZM21.7143 21.7143V22.8571H20.5715V21.7143H21.7143ZM21.7143 20.5714H20.5715V19.4286H21.7143V20.5714ZM22.8572 20.5714H21.7143V21.7143H22.8572V22.8571H24V21.7143H25.1429V22.8571H26.2857V21.7143H25.1429V20.5714H26.2857V19.4286H25.1429V18.2857H26.2857V17.1428H25.1429V16H26.2857V14.8571H25.1429V16H24V17.1428H22.8572V18.2857H21.7143V19.4286H22.8572V20.5714ZM24 20.5714H22.8572V21.7143H24V20.5714ZM24 19.4286H25.1429V20.5714H24V19.4286ZM24 18.2857H25.1429V17.1428H24V18.2857ZM24 18.2857V19.4286H22.8572V18.2857H24ZM19.4286 21.7143V22.8571H18.2857V21.7143H19.4286Z" fill="#222222"/>
</svg>
