<svg width="32" height="32" viewBox="0 0 32 32" fill="none" xmlns="http://www.w3.org/2000/svg">
<path fill-rule="evenodd" clip-rule="evenodd" d="M20.5714 4.57144H21.7143V8.00001H25.7143C26.0343 8.00001 26.2857 8.25144 26.2857 8.57144V23.4286C26.2857 23.5801 26.2255 23.7255 26.1183 23.8326C26.0112 23.9398 25.8658 24 25.7143 24H21.7143V27.4286H20.5714V24H16.5714C16.4199 24 16.2745 23.9398 16.1674 23.8326C16.0602 23.7255 16 23.5801 16 23.4286V8.57144C16 8.25144 16.2514 8.00001 16.5714 8.00001H20.5714V4.57144ZM17.1429 22.8572H25.1429V9.14287H17.1429V22.8572ZM11.4286 8.00001H10.2857V11.4286H8.57143C8.41988 11.4286 8.27453 11.4888 8.16737 11.5959C8.0602 11.7031 8 11.8485 8 12V21.1429C8 21.4629 8.25143 21.7143 8.57143 21.7143H10.2857V25.1429H11.4286V21.7143H13.1429C13.2944 21.7143 13.4398 21.6541 13.5469 21.5469C13.6541 21.4398 13.7143 21.2944 13.7143 21.1429V12C13.7143 11.8485 13.6541 11.7031 13.5469 11.5959C13.4398 11.4888 13.2944 11.4286 13.1429 11.4286H11.4286V8.00001ZM10.2857 12.5714H9.14286V20.5714H12.5714V12.5714H10.2857Z" fill="#222222"/>
</svg>
