<svg width="42" height="42" viewBox="0 0 42 42" fill="none" xmlns="http://www.w3.org/2000/svg">
<g clip-path="url(#clip0_1_249)">
<path d="M12.4 16C12.4 16.5304 12.6107 17.0391 12.9858 17.4142C13.3609 17.7893 13.8696 18 14.4 18C14.9304 18 15.4392 17.7893 15.8142 17.4142C16.1893 17.0391 16.4 16.5304 16.4 16C16.4 15.4696 16.1893 14.9609 15.8142 14.5858C15.4392 14.2107 14.9304 14 14.4 14C13.8696 14 13.3609 14.2107 12.9858 14.5858C12.6107 14.9609 12.4 15.4696 12.4 16Z" stroke="#222222" stroke-width="2" stroke-linecap="round" stroke-linejoin="round"/>
<path d="M23.4 24C23.4 24.5304 23.6107 25.0391 23.9858 25.4142C24.3609 25.7893 24.8696 26 25.4 26C25.9304 26 26.4391 25.7893 26.8142 25.4142C27.1893 25.0391 27.4 24.5304 27.4 24C27.4 23.4696 27.1893 22.9609 26.8142 22.5858C26.4391 22.2107 25.9304 22 25.4 22C24.8696 22 24.3609 22.2107 23.9858 22.5858C23.6107 22.9609 23.4 23.4696 23.4 24Z" stroke="#222222" stroke-width="2" stroke-linecap="round" stroke-linejoin="round"/>
<path d="M24.4 15C24.4 15.7956 24.7161 16.5587 25.2787 17.1213C25.8413 17.6839 26.6044 18 27.4 18C28.1957 18 28.9587 17.6839 29.5213 17.1213C30.0839 16.5587 30.4 15.7956 30.4 15C30.4 14.2044 30.0839 13.4413 29.5213 12.8787C28.9587 12.3161 28.1957 12 27.4 12C26.6044 12 25.8413 12.3161 25.2787 12.8787C24.7161 13.4413 24.4 14.2044 24.4 15Z" stroke="#222222" stroke-width="2" stroke-linecap="round" stroke-linejoin="round"/>
<path d="M12.4 27C12.4 27.7956 12.7161 28.5587 13.2787 29.1213C13.8413 29.6839 14.6044 30 15.4 30C16.1957 30 16.9587 29.6839 17.5213 29.1213C18.0839 28.5587 18.4 27.7956 18.4 27C18.4 26.2044 18.0839 25.4413 17.5213 24.8787C16.9587 24.3161 16.1957 24 15.4 24C14.6044 24 13.8413 24.3161 13.2787 24.8787C12.7161 25.4413 12.4 26.2044 12.4 27Z" stroke="#222222" stroke-width="2" stroke-linecap="round" stroke-linejoin="round"/>
<path d="M18.4 26L23.4 24.5" stroke="#222222" stroke-width="2" stroke-linecap="round" stroke-linejoin="round"/>
<path d="M15.9 17.5L23.71 22.87" stroke="#222222" stroke-width="2" stroke-linecap="round" stroke-linejoin="round"/>
<path d="M16.4 16L24.4 15" stroke="#222222" stroke-width="2" stroke-linecap="round" stroke-linejoin="round"/>
</g>
<defs>
<clipPath id="clip0_1_249">
<rect width="24" height="24" fill="white" transform="translate(9.40001 9)"/>
</clipPath>
</defs>
</svg>
