<svg width="32" height="32" viewBox="0 0 32 32" fill="none" xmlns="http://www.w3.org/2000/svg">
<path d="M21.7143 9.14286V22.8571H18.2857V9.14286H21.7143ZM22.8572 8.56914C22.8572 8.25486 22.6115 8 22.288 8H17.712C17.3977 8 17.1429 8.25143 17.1429 8.56914V23.4309C17.1421 23.5058 17.1563 23.5802 17.1847 23.6496C17.213 23.719 17.2549 23.782 17.3079 23.835C17.3609 23.888 17.4239 23.9299 17.4933 23.9582C17.5627 23.9866 17.6371 24.0008 17.712 24H22.288C22.3629 24.0003 22.437 23.9858 22.5062 23.9573C22.5754 23.9288 22.6382 23.8869 22.6911 23.834C22.7441 23.7811 22.786 23.7182 22.8145 23.649C22.843 23.5798 22.8575 23.5057 22.8572 23.4309V8.56914Z" fill="#222222"/>
<path d="M20.5714 4.57141H19.4286V8.57141H20.5714V4.57141Z" fill="#222222"/>
<path d="M12.5714 6.85715V13.7143H9.1428V6.85715H12.5714ZM13.7142 6.28572C13.7142 5.97029 13.4685 5.71429 13.1451 5.71429H8.56909C8.2548 5.71429 7.99995 5.97715 7.99995 6.28572V14.2857C7.99995 14.6012 8.24566 14.8572 8.56909 14.8572H13.1451C13.296 14.8557 13.4402 14.7949 13.5467 14.688C13.6532 14.5811 13.7133 14.4366 13.7142 14.2857V6.28572Z" fill="#222222"/>
<path d="M11.4286 2.28571H10.2857V6.28571H11.4286V2.28571Z" fill="#222222"/>
</svg>
