<svg width="32" height="32" viewBox="0 0 32 32" fill="none" xmlns="http://www.w3.org/2000/svg">
<path d="M19.4286 12.5714V19.4286H22.8572V12.5714H19.4286ZM18.8572 11.4286H23.4286C23.5802 11.4286 23.7255 11.4888 23.8327 11.596C23.9398 11.7031 24.0001 11.8485 24.0001 12V20C24.0001 20.1516 23.9398 20.2969 23.8327 20.4041C23.7255 20.5112 23.5802 20.5714 23.4286 20.5714H18.8572C18.7056 20.5714 18.5603 20.5112 18.4531 20.4041C18.346 20.2969 18.2858 20.1516 18.2858 20V12C18.2858 11.8485 18.346 11.7031 18.4531 11.596C18.5603 11.4888 18.7056 11.4286 18.8572 11.4286Z" fill="#222222"/>
<path d="M20.5714 8H21.7143V12H20.5714V8ZM20.5714 20H21.7143V24H20.5714V20Z" fill="#222222"/>
<path d="M10.2857 9.14286V21.7143H13.7143V9.14286H10.2857ZM9.71425 8H14.2857C14.4372 8 14.5826 8.0602 14.6897 8.16737C14.7969 8.27453 14.8571 8.41988 14.8571 8.57143V22.2857C14.8571 22.4373 14.7969 22.5826 14.6897 22.6898C14.5826 22.7969 14.4372 22.8571 14.2857 22.8571H9.71425C9.5627 22.8571 9.41735 22.7969 9.31019 22.6898C9.20303 22.5826 9.14282 22.4373 9.14282 22.2857V8.57143C9.14282 8.41988 9.20303 8.27453 9.31019 8.16737C9.41735 8.0602 9.5627 8 9.71425 8Z" fill="#222222"/>
<path d="M11.4285 4.57141H12.5714V10.2857H11.4285V4.57141ZM11.4285 20.5714H12.5714V26.2857H11.4285V20.5714ZM9.71423 10.2857H11.4285V11.4286H9.71423V10.2857ZM12.5714 10.2857H14.2857V11.4286H12.5714V10.2857ZM11.4285 11.4286H12.5714V12.5714H11.4285V11.4286ZM9.71423 12.5714H11.4285V13.7143H9.71423V12.5714ZM12.5714 12.5714H14.2857V13.7143H12.5714V12.5714ZM11.4285 13.7143H12.5714V14.8571H11.4285V13.7143ZM9.71423 14.8571H11.4285V16H9.71423V14.8571ZM12.5714 14.8571H14.2857V16H12.5714V14.8571ZM11.4285 16H12.5714V17.1428H11.4285V16ZM9.71423 17.1428H11.4285V18.2857H9.71423V17.1428ZM12.5714 17.1428H14.2857V18.2857H12.5714V17.1428ZM11.4285 18.2857H12.5714V19.4286H11.4285V18.2857ZM9.71423 19.4286H11.4285V20.5714H9.71423V19.4286ZM12.5714 19.4286H14.2857V20.5714H12.5714V19.4286Z" fill="#222222"/>
</svg>
