<svg width="32" height="32" viewBox="0 0 32 32" fill="none" xmlns="http://www.w3.org/2000/svg">
<path d="M25.1428 5.71429H26.2857V6.85715H25.1428V5.71429ZM24 8.00001V6.85715H25.1428V8.00001H24ZM22.8571 9.14287V8.00001H24V9.14287H22.8571ZM21.7143 10.2857V9.14287H22.8571V10.2857H21.7143ZM20.5714 11.4286V10.2857H21.7143V11.4286H20.5714ZM19.4286 12.5714V11.4286H20.5714V12.5714H19.4286ZM18.2857 13.7143V12.5714H19.4286V13.7143H18.2857ZM17.1428 13.7143H18.2857V14.8572H17.1428V13.7143ZM16 12.5714H17.1428V13.7143H16V12.5714ZM14.8571 11.4286H16V12.5714H14.8571V11.4286ZM13.7143 10.2857H14.8571V11.4286H13.7143V10.2857ZM12.5714 9.14287H13.7143V10.2857H12.5714V9.14287ZM11.4286 9.14287V8.00001H12.5714V9.14287H11.4286ZM10.2857 10.2857V9.14287H11.4286V10.2857H10.2857ZM9.14284 11.4286V10.2857H10.2857V11.4286H9.14284ZM7.99998 12.5714V11.4286H9.14284V12.5714H7.99998ZM6.85713 13.7143V12.5714H7.99998V13.7143H6.85713ZM5.71427 14.8572V13.7143H6.85713V14.8572H5.71427ZM5.71427 14.8572V16H4.57141V14.8572H5.71427Z" fill="#222222"/>
<path d="M26.6743 11.8514L17.7143 20.2286L12 14.5143L6.1143 19.8514L5.33716 19.0057L12.0343 12.9257L17.7486 18.64L25.9086 11.0172L26.6743 11.8514ZM6.85716 24H5.7143V25.1429H6.85716V24ZM8.00002 22.8572V24H6.85716V22.8572H8.00002ZM9.14287 21.7143H8.00002V22.8572H9.14287V21.7143ZM10.2857 20.5714V21.7143H9.14287V20.5714H10.2857Z" fill="#222222"/>
<path d="M11.4286 19.4285H10.2858V20.5714H11.4286V19.4285ZM12.5715 19.4285H11.4286V18.2857H12.5715V19.4285ZM13.7143 20.5714H12.5715V19.4285H13.7143V20.5714ZM14.8572 21.7143V20.5714H13.7143V21.7143H14.8572ZM16.0001 22.8571H14.8572V21.7143H16.0001V22.8571ZM17.1429 24V22.8571H16.0001V24H17.1429ZM18.2858 24V25.1428H17.1429V24H18.2858ZM19.4286 22.8571V24H18.2858V22.8571H19.4286ZM20.5715 21.7143V22.8571H19.4286V21.7143H20.5715ZM21.7143 20.5714H20.5715V21.7143H21.7143V20.5714ZM22.8572 19.4285V20.5714H21.7143V19.4285H22.8572ZM24.0001 18.2857H22.8572V19.4285H24.0001V18.2857ZM25.1429 17.1428V18.2857H24.0001V17.1428H25.1429ZM26.2858 16H25.1429V17.1428H26.2858V16ZM26.2858 16H27.4286V14.8571H26.2858V16Z" fill="#222222"/>
</svg>
