<svg width="32" height="32" viewBox="0 0 32 32" fill="none" xmlns="http://www.w3.org/2000/svg">
<path d="M10.2857 9.14286V22.8571H13.7143V9.14286H10.2857ZM9.14283 8.56914C9.14283 8.25486 9.38854 8 9.71197 8H14.288C14.6023 8 14.8571 8.25143 14.8571 8.56914V23.4309C14.8579 23.5058 14.8437 23.5802 14.8153 23.6496C14.787 23.719 14.7451 23.782 14.6921 23.835C14.6391 23.888 14.5761 23.9299 14.5067 23.9582C14.4373 23.9866 14.3629 24.0008 14.288 24H9.71197C9.63714 24.0003 9.563 23.9858 9.49381 23.9573C9.42462 23.9288 9.36176 23.8869 9.30885 23.834C9.25594 23.7811 9.21403 23.7182 9.18553 23.649C9.15704 23.5798 9.14252 23.5057 9.14283 23.4309V8.56914Z" fill="#222222"/>
<path d="M11.4286 4.57141H12.5714V8.57141H11.4286V4.57141Z" fill="#222222"/>
<path d="M19.4286 6.85715V13.7143H22.8572V6.85715H19.4286ZM18.2858 6.28572C18.2858 5.97029 18.5315 5.71429 18.8549 5.71429H23.4309C23.7452 5.71429 24.0001 5.97715 24.0001 6.28572V14.2857C24.0001 14.6012 23.7543 14.8572 23.4309 14.8572H18.8549C18.704 14.8557 18.5598 14.7949 18.4533 14.688C18.3468 14.5811 18.2867 14.4366 18.2858 14.2857V6.28572Z" fill="#222222"/>
<path d="M20.5714 2.28571H21.7143V6.28571H20.5714V2.28571Z" fill="#222222"/>
</svg>
